<?xml version="1.0" encoding="UTF-8" standalone="no"?>
<svg
   xmlns:dc="http://purl.org/dc/elements/1.1/"
   xmlns:cc="http://creativecommons.org/ns#"
   xmlns:rdf="http://www.w3.org/1999/02/22-rdf-syntax-ns#"
   xmlns:svg="http://www.w3.org/2000/svg"
   xmlns="http://www.w3.org/2000/svg"
   viewBox="0 0 384 384"
   height="384"
   width="384"
   xml:space="preserve"
   id="svg2"
   version="1.1"><metadata
     id="metadata8"><rdf:RDF><cc:Work
         rdf:about=""><dc:format>image/svg+xml</dc:format><dc:type
           rdf:resource="http://purl.org/dc/dcmitype/StillImage" /></cc:Work></rdf:RDF></metadata><defs
     id="defs6"><radialGradient
       id="radialGradient20"
       spreadMethod="pad"
       gradientTransform="matrix(2743.78,0,0,-2743.78,1440,1428.63)"
       gradientUnits="userSpaceOnUse"
       r="1"
       cy="0"
       cx="0"
       fy="0"
       fx="0"><stop
         id="stop14"
         offset="0"
         style="stop-opacity:1;stop-color:#ffffff" /><stop
         id="stop16"
         offset="0.390533"
         style="stop-opacity:1;stop-color:#ffffff" /><stop
         id="stop18"
         offset="1"
         style="stop-opacity:1;stop-color:#fddff0" /></radialGradient><clipPath
       id="clipPath30"
       clipPathUnits="userSpaceOnUse"><path
         id="path28"
         d="m 1779.26,2307.69 c 2.8,-23.19 17.49,-220.33 -262.55,-404.83 -297.67,-196.11 -429.29,-575.82 -392.93,-828.3 94.95,-48.31 202.4,-75.56 316.22,-75.56 385.64,0 698.27,312.63 698.27,698.28 0,262.51 -144.87,491.13 -359.01,610.41 z" /></clipPath><linearGradient
       id="linearGradient36"
       spreadMethod="pad"
       gradientTransform="matrix(-399.367,399.367,399.367,399.367,1882.15,1279.38)"
       gradientUnits="userSpaceOnUse"
       y2="0"
       x2="1"
       y1="0"
       x1="0"><stop
         id="stop32"
         offset="0"
         style="stop-opacity:1;stop-color:#f3609d" /><stop
         id="stop34"
         offset="1"
         style="stop-opacity:1;stop-color:#ed144f" /></linearGradient><clipPath
       id="clipPath46"
       clipPathUnits="userSpaceOnUse"><path
         id="path44"
         d="m 1516.71,1902.86 c 280.04,184.5 265.35,381.64 262.55,404.83 -100.45,55.95 -216.12,87.87 -339.26,87.87 -385.65,0 -698.277,-312.63 -698.277,-698.28 0,-271.82 155.328,-507.36 382.057,-622.72 -36.36,252.48 95.26,632.19 392.93,828.3 z" /></clipPath><linearGradient
       id="linearGradient52"
       spreadMethod="pad"
       gradientTransform="matrix(-5.71e-5,-1306.94,-1306.94,5.71e-5,1261.01,2395.56)"
       gradientUnits="userSpaceOnUse"
       y2="0"
       x2="1"
       y1="0"
       x1="0"><stop
         id="stop48"
         offset="0"
         style="stop-opacity:1;stop-color:#f3609d" /><stop
         id="stop50"
         offset="1"
         style="stop-opacity:1;stop-color:#ed144f" /></linearGradient></defs><g
     transform="matrix(1.3333333,0,0,-1.3333333,0,384)"
     id="g10"><g
       transform="scale(0.1)"
       id="g12"><path
         id="path22"
         style="fill:url(#radialGradient20);fill-opacity:1;fill-rule:nonzero;stroke:none"
         d="M 2880,2880 V 0 H 0 v 2880 h 2880" /><g
         id="g24"><g
           clip-path="url(#clipPath30)"
           id="g26"><path
             id="path38"
             style="fill:url(#linearGradient36);fill-opacity:1;fill-rule:nonzero;stroke:none"
             d="m 1779.26,2307.69 c 2.8,-23.19 17.49,-220.33 -262.55,-404.83 -297.67,-196.11 -429.29,-575.82 -392.93,-828.3 94.95,-48.31 202.4,-75.56 316.22,-75.56 385.64,0 698.27,312.63 698.27,698.28 0,262.51 -144.87,491.13 -359.01,610.41" /></g></g><g
         id="g40"><g
           clip-path="url(#clipPath46)"
           id="g42"><path
             id="path54"
             style="fill:url(#linearGradient52);fill-opacity:1;fill-rule:nonzero;stroke:none"
             d="m 1516.71,1902.86 c 280.04,184.5 265.35,381.64 262.55,404.83 -100.45,55.95 -216.12,87.87 -339.26,87.87 -385.65,0 -698.277,-312.63 -698.277,-698.28 0,-271.82 155.328,-507.36 382.057,-622.72 -36.36,252.48 95.26,632.19 392.93,828.3" /></g></g><path
         id="path56"
         style="fill:#ffffff;fill-opacity:1;fill-rule:nonzero;stroke:none"
         d="m 1779,2315.77 c 0,0 17.67,-109.31 -3.31,-187.71 -20.98,-78.4 -49.69,-110.42 4.42,-203.18 54.11,-92.76 98.27,-103.8 73.99,-133.61 -24.31,-29.82 -77.3,-47.49 -77.3,-47.49 0,0 3.31,-17.11 17.11,-32.01 13.8,-14.92 14.91,-39.21 -6.62,-56.32 -21.54,-17.12 -19.33,-14.91 -19.33,-14.91 0,0 10.08,-6.96 17.67,-24.15 8.28,-18.77 -1.93,-39.21 -22.37,-48.04 -20.43,-8.83 -28.93,-12.21 -32.71,-19.05 -4.55,-8.28 -0.13,-9.25 5.39,-40.16 5.52,-30.93 15.47,-60.18 -22.63,-88.89 -38.1,-28.72 -112.37,-17.13 -176.14,11.87 -63.77,28.98 -231.88,57.97 -317.18,-55.49 -53.43,-71.05 -81.17,-125.06 -96.08,-303.11 0,0 -219.461,542.17 16.85,765.23 253.44,239.24 543.27,88.33 638.24,477.02" /></g></g></svg>